<?xml version="1.0" encoding="utf-8"?>
<svg viewBox="460.185 735.477 1126.582 536.04" style="enable-background:new 0 0 2000 2000;" xmlns="http://www.w3.org/2000/svg">
  <defs>
    <style type="text/css">
	.st0{fill:none;}
	.st1{fill:url(#SVGID_1_);}
</style>
  </defs>
  <rect class="st0" width="2000" height="2000"/>
  <g transform="matrix(1, 0, 0, 1, 8.019814, 5.662971)">
    <g>
      <g>
        <path d="M993.8,1081.7c-12.4,0-24.3-1.8-35.6-5.3c-11.3-3.6-20.3-8.1-27-13.7l10.2-22.9c6.4,5,14.2,9.2,23.6,12.5 c9.4,3.3,19,5,28.8,5c8.3,0,15-0.9,20.2-2.7c5.1-1.8,8.9-4.3,11.3-7.4c2.4-3.1,3.6-6.6,3.6-10.6c0-4.8-1.7-8.7-5.2-11.7 c-3.5-3-8-5.3-13.5-7c-5.5-1.7-11.6-3.4-18.4-4.9c-6.7-1.5-13.5-3.3-20.2-5.3c-6.7-2-12.9-4.7-18.4-7.9c-5.5-3.3-10-7.6-13.5-13 c-3.5-5.4-5.2-12.4-5.2-20.9c0-8.6,2.3-16.5,6.9-23.7c4.6-7.2,11.6-12.9,21.1-17.2c9.5-4.3,21.4-6.5,36-6.5 c9.5,0,19,1.2,28.4,3.6c9.4,2.4,17.5,5.9,24.5,10.4l-9.3,22.9c-7.1-4.2-14.4-7.4-22-9.4c-7.6-2-14.8-3.1-21.8-3.1 c-8.2,0-14.8,1-19.9,2.9c-5.1,2-8.8,4.5-11.1,7.7c-2.3,3.2-3.5,6.8-3.5,10.9c0,4.8,1.7,8.7,5.1,11.7c3.4,3,7.9,5.3,13.4,6.9 c5.5,1.7,11.7,3.3,18.5,4.9c6.8,1.6,13.6,3.4,20.3,5.3c6.7,2,12.9,4.5,18.4,7.7c5.5,3.2,10,7.5,13.4,12.9 c3.4,5.4,5.1,12.3,5.1,20.6c0,8.5-2.3,16.3-6.9,23.5c-4.6,7.2-11.7,12.9-21.2,17.2C1020.4,1079.5,1008.4,1081.7,993.8,1081.7z"/>
        <path d="M1087.3,1079.4V920.6h29.5v158.8H1087.3z"/>
        <path d="M1137.2,1079.4l71.5-158.8h29l71.7,158.8h-30.9l-61.5-143.2h11.8l-61.3,143.2H1137.2z M1170.1,1042.7l7.9-23.1h85.8 l7.9,23.1H1170.1z"/>
        <path d="M1359.1,1079.4h-29.5V920.6h115.9v24.7h-86.4V1079.4z M1356.6,993.6h79.2v25h-79.2V993.6z"/>
        <path d="M1474.1,1079.4V920.6h29.5v158.8H1474.1z"/>
      </g>
    </g>
    <linearGradient id="SVGID_1_" gradientUnits="userSpaceOnUse" x1="496.359" y1="1000" x2="856.1018" y2="1000">
      <stop offset="0" style="stop-color:#00BDFF"/>
      <stop offset="1" style="stop-color:#0049FF"/>
    </linearGradient>
    <path class="st1" d="M676.6,990.3c0,52.2-0.1,104.4,0.1,156.6c0,8.1-2.7,14.6-8,20.3c-8.2,8.9-18.5,14.7-30,17.9 c-4.8,1.3-10.3,0.6-15.4,0.4c-9.8-0.5-19.3-2.3-28.1-6.9c-8.8-4.6-15.3-11.2-18.9-20.6c-0.4-1-1.6-2.1-2.6-2.4 c-26.1-8.6-42.3-26.5-50.1-52.6c-1.5-5-3.4-9.9-4.4-15c-2-10.1-0.9-20,2-29.8c0.4-1.4,0.6-2.5-0.6-3.7 c-33.4-34.6-33.6-115.6,6.9-145.2c1-0.7,1.7-2.3,1.9-3.6c3.3-26.1,14.6-47.1,37.8-60.6c5.7-3.3,12.3-5.3,18.4-7.9 c1.3-0.6,2.7-1.2,3.7-2.2c10.6-10.4,22.9-17.9,37.8-20.1c17.4-2.5,33.5,1.2,47.9,11.5c0.8,0.5,1.1,1.8,1.4,2.7 c0.2,0.7,0.1,1.5,0.1,2.3C676.6,884.4,676.6,937.4,676.6,990.3z M541.9,913.5c-1.4,1.3-2.2,2.2-3.2,3c-3.5,2.7-7.4,5.1-10.5,8.2 c-9,9.1-13.6,20.5-15.5,32.8c-1.2,7.8-1.1,15.7-1.8,23.6c-0.9,10.5-0.4,21,1.7,31.3c3.1,14.8,9.2,27.9,21.4,37.5 c2,1.6,2.2,2.9,1.3,5.1c-4.5,10.7-6.2,21.8-3.5,33.3c0.9,4,2.6,7.8,3.8,11.8c6,19.7,18,34.1,37.2,42.2c2.2,0.9,3.9,0.9,5.9-0.7 c14.2-11,28.5-21.9,42.8-32.7c2.7-2,5.2-3.9,4.7-7.7c-0.1-0.5,0.2-1,0.4-1.5c2.4-6.5,9.3-10,15.8-7.9c6.6,2.1,10.4,8.9,8.5,15.5 c-1.9,6.8-8.6,10.8-15.5,8.9c-2.1-0.6-3.5-0.2-5.1,1.1c-13.7,10.5-27.4,21-41.2,31.5c-1.7,1.3-2.1,2.5-1.4,4.5 c2.4,6.8,7.2,11.4,13.5,14.6c8.8,4.5,18.4,5.4,28.1,5.7c2.5,0.1,5.1,0.3,7.4-0.4c8.6-2.9,16.4-7.2,22.8-13.7 c3.6-3.7,5.4-8,5.4-13.4c-0.1-95,0-190,0-285.1c0-8.3,0-16.7-0.1-25c0-1.1-0.7-2.6-1.5-3.1c-19.1-10.4-40.7-9.6-58.5,4.5 c-0.5,0.4-1.2,0.7-1.9,1c1.1,1.3,1.6,2,2.2,2.6c8.7,8.5,17.3,17,26.1,25.4c1.6,1.5,2.2,3,2.2,5.2c0,31.4,0,62.8,0,94.2 c0,2.1-0.7,3.3-2.2,4.5c-9.2,7.4-18.3,14.9-27.4,22.3c-1.3,1.1-1.6,2.3-2,3.9c-0.6,2.8-1.3,5.8-3,8c-4,5.1-11.1,6-16.3,2.7 c-5.5-3.5-7.5-10.3-4.8-16.3c2.5-5.6,8.8-8.4,15.1-6.9c1,0.2,2.4,0,3.2-0.7c7.9-6.3,15.8-12.7,23.6-19.2c1-0.8,1.8-2.4,1.8-3.6 c0.1-28.1,0.1-56.2,0-84.4c0-1.3-0.6-2.9-1.5-3.8c-7.8-7.9-15.8-15.6-23.8-23.3c-0.8-0.7-2.4-1.2-3.4-1 c-25.2,5.5-44,23.7-49.8,50.3c-0.3,1.5,0.1,2.3,1.5,3c10.5,5.6,20.9,11.2,31.3,16.9c1.4,0.8,2.6,1,4.3,0.3c6.3-2.5,13.3,0.2,16,6.1 c2.2,4.8,2,9.6-1.5,13.8c-3.4,4.1-7.9,5.5-13,4.2c-5.4-1.4-8.5-5.1-9.3-10.5c-0.3-1.9-1-2.8-2.7-3.6c-2.8-1.4-5.4-2.9-8.2-4.4 C554.6,920.4,548.1,916.9,541.9,913.5z M600.3,1067.9c0-5.3-0.1-10.7,0.1-16c0-1.2,0.7-2.7,1.6-3.4c9.6-7.9,19.3-15.5,28.8-23.4 c1.8-1.5,3.4-2,5.8-1.6c7.4,1.4,13.8-3.8,14.6-11.6c0.7-6.8-5-13.1-12.3-13.5c-6.8-0.4-12.9,5.5-12.9,12.6c0,2-0.7,3.1-2.2,4.3 c-11.1,8.6-22.1,17.3-33.2,25.8c-1.7,1.3-2.3,2.6-2.3,4.8c0.1,12.9,0,25.8,0,38.7c0,1.7-0.4,2.9-1.8,4c-3.1,2.6-4.5,6.1-4.3,10.1 c0.3,6.3,4.7,11.1,10.8,12c5.7,0.9,11.6-2.4,13.8-7.7c2.3-5.7,0.5-11.9-4.7-15.5c-1.5-1-2-2.1-1.9-3.8 C600.3,1078.4,600.3,1073.2,600.3,1067.9C600.3,1067.9,600.3,1067.9,600.3,1067.9z M562.2,1039.2c1.7-5.5,0-11.3-4.7-14.4 c-1.8-1.2-2.2-2.5-2.2-4.4c0-16.9,0-33.9-0.1-50.8c0-2.7,0.4-4.7,2.6-6.8c5.1-4.9,4.5-13.6-0.9-18.1c-5.7-4.8-13.9-3.9-18.5,2 c-4.2,5.4-3,14,2.8,17.8c1.8,1.2,2.2,2.4,2.2,4.4c-0.1,17.5-0.1,34.9-0.1,52.4c0,1.9-0.5,3.3-2,4.7c-3.9,3.5-5.1,9-3.1,13.9 c1.9,4.9,6.5,8,11.8,8C555.7,1047.9,560.6,1044.4,562.2,1039.2z M855.6,980.2c-0.7-8.4-0.7-16.9-2-25.2c-0.2-1.4-0.5-2.8-0.8-4.2 c-2.8-11.1-7.3-21.5-14.3-29.3c-0.5-0.5-1-1.1-1.5-1.6c-3.3-3.4-7.5-5.9-11.2-8.8c-1.1-0.8-2-1.8-3.5-3.2 c-6.6,3.5-13.6,7.3-20.7,11.1c-2.9,1.6-5.8,3.3-8.7,4.7c-1.7,0.8-2.5,1.9-2.9,3.9c-0.9,5.8-4.2,9.7-10,11.2 c-5.5,1.4-10.3-0.1-13.9-4.4c-3.7-4.5-4-9.6-1.6-14.7c2.9-6.2,10.4-9.1,17.1-6.5c1.8,0.7,3.1,0.5,4.6-0.3 c11.1-6.1,22.3-12.1,33.5-18.1c1.5-0.8,1.9-1.6,1.6-3.3c-6.2-28.5-26.3-48-53.2-53.8c-1.1-0.2-2.8,0.3-3.6,1.1 c-8.6,8.2-17,16.5-25.4,24.9c-1,1-1.6,2.7-1.6,4.1c-0.1,30.1-0.1,60.1,0,90.2c0,1.3,0.9,3,1.9,3.9c8.3,7,16.7,13.8,25.2,20.6 c0.8,0.7,2.4,1,3.4,0.7c6.8-1.6,13.5,1.4,16.2,7.3c2.9,6.4,0.7,13.7-5.2,17.4c-5.6,3.5-13.1,2.6-17.4-2.9c-1.8-2.3-2.6-5.6-3.2-8.5 c-0.4-1.7-0.7-3-2.1-4.2c-9.8-7.9-19.5-15.9-29.3-23.8c-1.6-1.3-2.4-2.7-2.4-4.9c0.1-33.6,0.1-67.1,0-100.7c0-2.3,0.7-3.9,2.4-5.5 c9.4-9,18.6-18.1,27.9-27.1c0.6-0.6,1.2-1.4,2.4-2.7c-0.8-0.4-1.5-0.6-2.1-1.1c-19.1-15-42.2-15.9-62.6-4.8 c-0.9,0.5-1.6,2.2-1.6,3.3c-0.1,8.9-0.1,17.8-0.1,26.8c0,33,0,65.9,0,98.9c0,22.3,0,44.6,0,66.8v20.2c0,21.5,0,43,0,64.6 c0,14.1,0,28.3,0,42.4c0,1.4,0,2.8,0,4.2c0,8.8,0.5,16.2,6.8,23l0.1,0.1c3.7,3.6,7.8,6.5,12.3,8.9c6.4,3.2,13.4,4.9,20.5,5.2 c9.2-0.3,18.2-1.3,26.7-5.2c0.6-0.3,1.2-0.6,1.8-0.9c6.7-3.4,11.8-8.3,14.4-15.6c0.8-2.2,0.3-3.4-1.5-4.9 c-14.7-11.1-29.4-22.3-44.1-33.6c-1.8-1.4-3.3-1.7-5.5-1.1c-7.3,2-14.5-2.3-16.5-9.5c-2-7.1,2-14.4,9.1-16.6 c7-2.2,14.4,1.5,16.9,8.5c0.2,0.5,0.5,1.1,0.4,1.6c-0.5,4.1,2.2,6.1,5.1,8.3c8.5,6.4,16.9,12.8,25.4,19.3c1.7,1.3,3.4,2.6,5.1,3.9 c0.2,0.1,0.4,0.3,0.5,0.4c0,0,0.1,0,0.1,0.1c4.4,3.4,8.8,6.8,13.2,10.2c2.7,1.4,5.5,2.1,8.5,1.5c3.7-1.6,7.2-3.4,10.5-5.5 c10.9-7.9,20-19,25.9-31.6c0,0,0-0.1,0-0.1c1-2.5,1.9-5,2.7-7.7c1-3.2,2.2-6.3,3.2-9.5c2.7-12.4,2.3-25.3-2.3-37.1 c-0.2-0.5-0.4-1-0.6-1.5c-1-2.4-0.8-3.8,1.4-5.5c0.7-0.5,1.3-1.1,2-1.6c0.5-0.5,1-0.9,1.5-1.4c0,0,0,0,0,0c0.6-0.5,1.1-1.1,1.6-1.6 c0.5-0.5,1-1,1.5-1.6c0,0,0.1-0.1,0.1-0.1c0.5-0.6,1-1.1,1.5-1.7c0.8-1,1.6-2,2.4-3c0.2-0.3,0.4-0.6,0.6-0.9 c5.9-8.3,9.4-17.9,11.6-28.3C856.1,1002.6,856.6,991.5,855.6,980.2z M779.1,1105.7c-0.4,6.7-5,11.8-11.5,12.9 c-6.1,1-12.4-2.5-14.7-8.3c-2.5-6.1-0.6-12.7,5-16.5c1.6-1.1,2.1-2.3,2.1-4.1c-0.1-5.6,0-11.2,0-16.8h0c0-5.7,0.1-11.4-0.1-17.1 c0-1.3-0.7-2.9-1.7-3.7c-10.2-8.4-20.6-16.6-30.8-25c-1.9-1.6-3.6-2.1-6.2-1.7c-7.9,1.5-14.7-4.1-15.6-12.4 c-0.8-7.3,5.3-14,13.2-14.4c7.3-0.4,13.8,5.9,13.8,13.5c0,2.1,0.8,3.3,2.3,4.6c11.8,9.2,23.6,18.5,35.5,27.6 c1.8,1.4,2.5,2.8,2.5,5.1c-0.1,13.8,0,27.6,0,41.4c0,1.8,0.4,3.1,1.9,4.3C777.9,1097.7,779.4,1101.5,779.1,1105.7z M820.7,1023 c0,2.1,0.5,3.5,2.2,5c4.2,3.7,5.4,9.6,3.3,14.9c-2,5.2-7,8.6-12.6,8.6c-6,0-11.2-3.7-13-9.3c-1.9-5.9,0-12.1,5-15.4 c1.9-1.3,2.4-2.6,2.4-4.7c-0.1-18.1-0.1-36.2,0.1-54.3c0-2.9-0.5-5.1-2.8-7.3c-5.5-5.2-4.8-14.5,0.9-19.4 c6.1-5.2,14.8-4.2,19.8,2.2c4.5,5.8,3.2,15-3,19c-2,1.3-2.4,2.6-2.4,4.7C820.7,985.7,820.8,1004.3,820.7,1023z"/>
  </g>
</svg>